# Blender v2.79 (sub 0) OBJ File: ''
# www.blender.org
mtllib grenadelauncherbit.mtl
o Instances-mech.006
v -0.844075 -0.124028 -0.067576
v -0.894349 -0.101263 -0.049345
v -0.896785 -0.043116 -0.103252
v -0.857653 -0.149960 0.024020
v -0.891982 -0.115401 0.018206
v -0.851105 -0.058904 -0.135693
v -0.887776 0.019597 -0.114820
v -0.848960 0.010718 -0.148423
v -0.849101 0.098734 -0.121139
v -0.885587 0.082121 -0.087253
v -0.853728 0.161067 -0.054440
v -0.892472 0.125938 -0.034478
v -0.897031 0.144265 0.018582
v -0.860559 0.179331 0.011665
v -0.858192 0.165192 0.079214
v -0.892390 0.130190 0.073086
v -0.896819 0.078954 0.125833
v -0.853433 0.100009 0.160378
v -0.898962 0.009330 0.138564
v -0.850986 0.023409 0.187315
v -0.859982 -0.057756 0.171911
v -0.901165 -0.034739 0.137967
v -0.855353 -0.120091 0.105211
v -0.898811 -0.097139 0.084310
v -0.857653 -0.149960 0.024020
v -0.891982 -0.115401 0.018206
v -0.723012 -0.127829 -0.059943
v -0.857653 -0.149960 0.024020
v -0.844075 -0.124028 -0.067576
v -0.734314 -0.153700 0.018610
v -0.851105 -0.058904 -0.135693
v -0.730042 -0.062710 -0.128059
v -0.725624 0.006978 -0.153837
v -0.848960 0.010718 -0.148423
v -0.725766 0.094993 -0.126551
v -0.849101 0.098734 -0.121139
v -0.853728 0.161067 -0.054440
v -0.732665 0.157266 -0.046805
v -0.728098 0.187194 0.021341
v -0.860559 0.179331 0.011665
v -0.858192 0.165192 0.079214
v -0.737128 0.161387 0.086847
v -0.732371 0.096205 0.168009
v -0.853433 0.100009 0.160378
v -0.850986 0.023409 0.187315
v -0.729920 0.019605 0.194945
v -0.859982 -0.057756 0.171911
v -0.725245 -0.049829 0.168544
v -0.855353 -0.120091 0.105211
v -0.734292 -0.123894 0.112844
v -0.857653 -0.149960 0.024020
v -0.734314 -0.153700 0.018610
v -0.725245 -0.049829 0.168544
v -0.695429 -0.139873 0.119538
v -0.704659 -0.052110 0.199000
v -0.734292 -0.123894 0.112844
v -0.734314 -0.153700 0.018610
v -0.695453 -0.169678 0.025303
v -0.729920 0.019605 0.194945
v -0.707062 0.017387 0.212361
v -0.704979 0.112564 0.186304
v -0.732371 0.096205 0.168009
v -0.737128 0.161387 0.086847
v -0.696062 0.189481 0.094138
v -0.728098 0.187194 0.021341
v -0.696158 0.203683 0.013546
v -0.707596 0.180661 -0.055765
v -0.732665 0.157266 -0.046805
v -0.693828 0.111479 -0.134347
v -0.725766 0.094993 -0.126551
v -0.725624 0.006978 -0.153837
v -0.698220 0.004886 -0.162511
v -0.700365 -0.064739 -0.149783
v -0.730042 -0.062710 -0.128059
v -0.700141 -0.148501 -0.069501
v -0.723012 -0.127829 -0.059943
v -0.734314 -0.153700 0.018610
v -0.695453 -0.169678 0.025303
v 1.001228 -0.066680 -0.108704
v -0.700141 -0.148501 -0.069501
v -0.700365 -0.064739 -0.149783
v 1.001450 -0.150444 -0.028424
v 0.994737 -0.183286 0.064333
v -0.695453 -0.169678 0.025303
v 0.996504 0.009857 -0.122596
v -0.698220 0.004886 -0.162511
v 0.996364 0.097869 -0.095315
v -0.693828 0.111479 -0.134347
v 0.993999 0.178720 -0.014690
v -0.707596 0.180661 -0.055765
v 1.005435 0.201740 0.054618
v -0.696158 0.203683 0.013546
v -0.696062 0.189481 0.094138
v 0.994130 0.175871 0.133171
v -0.704979 0.112564 0.186304
v 0.998884 0.110686 0.214330
v -0.707062 0.017387 0.212361
v 0.994527 0.015446 0.253435
v -0.704659 -0.052110 0.199000
v 0.987803 -0.065657 0.224988
v -0.695429 -0.139873 0.119538
v 0.987898 -0.146572 0.157409
v 0.994737 -0.183286 0.064333
v -0.695453 -0.169678 0.025303
v -0.885373 0.016810 0.019997
v -0.892390 0.130190 0.073086
v -0.897031 0.144265 0.018582
v -0.892472 0.125938 -0.034478
v -0.896819 0.078954 0.125833
v -0.898962 0.009330 0.138564
v -0.901165 -0.034739 0.137967
v -0.898811 -0.097139 0.084310
v -0.891982 -0.115401 0.018206
v -0.894349 -0.101263 -0.049345
v -0.896785 -0.043116 -0.103252
v -0.887776 0.019597 -0.114820
v -0.885587 0.082121 -0.087253
vt 0.644929 0.807026
vt 0.646771 0.807026
vt 0.646771 0.810272
vt 0.644929 0.804138
vt 0.646771 0.804138
vt 0.644929 0.810272
vt 0.646771 0.812624
vt 0.644929 0.812624
vt 0.644929 0.815537
vt 0.646771 0.815537
vt 0.644929 0.818784
vt 0.646771 0.818784
vt 0.646771 0.821135
vt 0.644929 0.821135
vt 0.644929 0.823461
vt 0.646771 0.823461
vt 0.646771 0.826707
vt 0.644929 0.826707
vt 0.646771 0.829621
vt 0.644929 0.829621
vt 0.644929 0.831972
vt 0.646771 0.831972
vt 0.644929 0.835219
vt 0.646771 0.835219
vt 0.644929 0.838107
vt 0.646771 0.838107
vt 0.640875 0.807026
vt 0.644929 0.804138
vt 0.644929 0.807026
vt 0.640875 0.804138
vt 0.644929 0.810272
vt 0.640875 0.810272
vt 0.640875 0.812624
vt 0.644929 0.812624
vt 0.640875 0.815537
vt 0.644929 0.815537
vt 0.644929 0.818784
vt 0.640875 0.818784
vt 0.640875 0.821135
vt 0.644929 0.821135
vt 0.644929 0.823461
vt 0.640875 0.823461
vt 0.640875 0.826707
vt 0.644929 0.826707
vt 0.644929 0.829621
vt 0.640875 0.829621
vt 0.644929 0.831972
vt 0.640875 0.831972
vt 0.644929 0.835219
vt 0.640875 0.835219
vt 0.644929 0.838107
vt 0.640875 0.838107
vt 0.640875 0.831972
vt 0.639659 0.835219
vt 0.639659 0.831972
vt 0.640875 0.835219
vt 0.640875 0.838107
vt 0.639659 0.838107
vt 0.640875 0.829621
vt 0.639659 0.829621
vt 0.639659 0.826707
vt 0.640875 0.826707
vt 0.640875 0.823461
vt 0.639659 0.823461
vt 0.640875 0.821135
vt 0.639659 0.821135
vt 0.639659 0.818784
vt 0.640875 0.818784
vt 0.639659 0.815537
vt 0.640875 0.815537
vt 0.640875 0.812624
vt 0.639659 0.812624
vt 0.639659 0.810272
vt 0.640875 0.810272
vt 0.639659 0.807026
vt 0.640875 0.807026
vt 0.640875 0.804138
vt 0.639659 0.804138
vt 0.584715 0.810272
vt 0.639659 0.807026
vt 0.639659 0.810272
vt 0.584715 0.807026
vt 0.584715 0.804138
vt 0.639659 0.804138
vt 0.584715 0.812624
vt 0.639659 0.812624
vt 0.584715 0.815537
vt 0.639659 0.815537
vt 0.584715 0.818784
vt 0.639659 0.818784
vt 0.584715 0.821135
vt 0.639659 0.821135
vt 0.639659 0.823461
vt 0.584715 0.823461
vt 0.639659 0.826707
vt 0.584715 0.826707
vt 0.639659 0.829621
vt 0.584715 0.829621
vt 0.639659 0.831972
vt 0.584715 0.831972
vt 0.639659 0.835219
vt 0.584715 0.835219
vt 0.584715 0.838107
vt 0.639659 0.838107
vt 0.038183 0.919362
vt 0.039878 0.923145
vt 0.038183 0.923631
vt 0.036451 0.923145
vt 0.041684 0.921458
vt 0.042347 0.919362
vt 0.041905 0.917650
vt 0.040247 0.915835
vt 0.038183 0.915094
vt 0.036083 0.915835
vt 0.034425 0.917650
vt 0.034019 0.919362
vt 0.034646 0.921458
vn -0.5227 -0.3195 -0.7904
vn -0.7053 -0.0004 -0.7090
vn -0.6127 -0.7176 0.3310
vn -0.7052 -0.0004 -0.7090
vn -0.7053 -0.0004 -0.7089
vn -0.7052 -0.0003 -0.7090
vn -0.7052 -0.0002 -0.7090
vn -0.5158 0.3344 -0.7887
vn -0.5158 0.3345 -0.7887
vn -0.6468 0.7225 0.2442
vn -0.6468 0.7225 0.2441
vn -0.6062 0.5049 0.6145
vn -0.6062 0.5048 0.6145
vn -0.8382 0.1781 0.5155
vn -0.9034 -0.0057 0.4287
vn -0.9035 -0.0058 0.4285
vn -0.8763 -0.0948 0.4724
vn -0.6315 -0.4848 0.6051
vn -0.6126 -0.7177 0.3312
vn 0.1028 -0.8137 -0.5722
vn -0.0058 -0.9985 0.0552
vn 0.1027 -0.8137 -0.5721
vn -0.0058 -0.9985 0.0551
vn 0.1028 -0.8138 -0.5720
vn -0.3693 0.0365 -0.9286
vn -0.3692 0.0366 -0.9286
vn 0.0954 0.8192 -0.5655
vn 0.0953 0.8193 -0.5654
vn 0.0954 0.8193 -0.5654
vn 0.0053 0.9986 -0.0524
vn 0.0054 0.9986 -0.0524
vn -0.1027 0.8137 0.5721
vn -0.1028 0.8137 0.5721
vn 0.3626 0.1757 0.9152
vn -0.0780 -0.8126 0.5776
vn -0.0780 -0.8125 0.5777
vn -0.0954 -0.8193 0.5654
vn -0.7248 -0.3740 0.5785
vn -0.3240 -0.7221 0.6113
vn -0.7248 -0.3740 0.5786
vn -0.3240 -0.7221 0.6112
vn -0.2099 -0.9329 0.2925
vn -0.9035 -0.0059 0.4286
vn -0.9034 -0.0058 0.4287
vn -0.6201 0.4907 0.6121
vn -0.6202 0.4907 0.6121
vn -0.2603 0.7508 0.6070
vn -0.2604 0.7509 0.6070
vn -0.1835 0.9622 0.2014
vn -0.1834 0.9622 0.2014
vn -0.2276 0.6330 -0.7399
vn -0.2275 0.6331 -0.7399
vn -0.6406 0.1377 -0.7554
vn -0.7053 -0.0003 -0.7089
vn -0.6666 -0.0852 -0.7405
vn -0.6666 -0.0851 -0.7405
vn -0.2658 -0.5935 -0.7597
vn -0.2099 -0.9330 0.2925
vn 0.1028 -0.8137 -0.5721
vn -0.0059 -0.9985 0.0552
vn -0.3673 0.0391 -0.9293
vn 0.0955 0.8192 -0.5655
vn -0.1028 0.8138 0.5720
vn -0.1027 0.8138 0.5720
vn 0.3667 0.1707 0.9145
vn 0.3666 0.1707 0.9146
vn -0.0764 -0.8119 0.5787
vn -0.0954 -0.8192 0.5655
vn -0.9711 -0.0053 0.2387
vn -0.9716 -0.0053 0.2364
vn -0.9705 -0.0053 0.2411
vn -0.9722 -0.0052 0.2341
vn -0.9711 -0.0053 0.2388
usemtl None.006
s 1
f 1/1/1 2/2/1 3/3/2
f 4/4/3 2/2/1 1/1/1
f 2/2/1 4/4/3 5/5/3
f 1/1/1 3/3/2 6/6/4
f 6/6/4 3/3/2 7/7/5
f 6/6/4 7/7/5 8/8/6
f 9/9/7 7/7/5 10/10/5
f 8/8/6 7/7/5 9/9/7
f 9/9/7 10/10/5 11/11/8
f 11/11/8 10/10/5 12/12/9
f 11/11/8 13/13/10 14/14/11
f 11/11/8 12/12/9 13/13/10
f 15/15/12 13/13/10 16/16/13
f 14/14/11 13/13/10 15/15/12
f 15/15/12 17/17/14 18/18/14
f 15/15/12 16/16/13 17/17/14
f 18/18/14 17/17/14 19/19/15
f 18/18/14 19/19/15 20/20/16
f 21/21/17 19/19/15 22/22/17
f 20/20/16 19/19/15 21/21/17
f 21/21/17 22/22/17 23/23/18
f 23/23/18 22/22/17 24/24/18
f 24/24/18 25/25/3 23/23/18
f 24/24/18 26/26/19 25/25/3
f 27/27/20 28/28/21 29/29/22
f 28/28/21 27/27/20 30/30/23
f 27/27/20 31/31/22 32/32/24
f 27/27/20 29/29/22 31/31/22
f 33/33/25 31/31/22 34/34/26
f 32/32/24 31/31/22 33/33/25
f 33/33/25 34/34/26 35/35/27
f 35/35/27 34/34/26 36/36/28
f 35/35/27 37/37/29 38/38/27
f 35/35/27 36/36/28 37/37/29
f 39/39/30 37/37/29 40/40/31
f 38/38/27 37/37/29 39/39/30
f 39/39/30 41/41/32 42/42/33
f 39/39/30 40/40/31 41/41/32
f 43/43/33 41/41/32 44/44/33
f 42/42/33 41/41/32 43/43/33
f 43/43/33 45/45/34 46/46/34
f 43/43/33 44/44/33 45/45/34
f 46/46/34 45/45/34 47/47/35
f 46/46/34 47/47/35 48/48/36
f 49/49/37 50/50/37 47/47/35
f 48/48/36 47/47/35 50/50/37
f 51/51/21 50/50/37 49/49/37
f 50/50/37 51/51/21 52/52/23
f 53/53/38 54/54/39 55/55/40
f 56/56/41 54/54/39 53/53/38
f 57/57/42 54/54/39 56/56/41
f 54/54/39 57/57/42 58/58/42
f 53/53/38 55/55/40 59/59/43
f 59/59/43 55/55/40 60/60/44
f 59/59/43 61/61/45 62/62/46
f 59/59/43 60/60/44 61/61/45
f 63/63/47 61/61/45 64/64/48
f 62/62/46 61/61/45 63/63/47
f 63/63/47 64/64/48 65/65/49
f 65/65/49 64/64/48 66/66/50
f 65/65/49 67/67/51 68/68/52
f 65/65/49 66/66/50 67/67/51
f 68/68/52 67/67/51 69/69/53
f 68/68/52 69/69/53 70/70/53
f 71/71/4 69/69/53 72/72/54
f 70/70/53 69/69/53 71/71/4
f 71/71/4 73/73/55 74/74/56
f 71/71/4 72/72/54 73/73/55
f 74/74/56 73/73/55 75/75/57
f 74/74/56 75/75/57 76/76/57
f 75/75/57 77/77/58 76/76/57
f 75/75/57 78/78/58 77/77/58
f 79/79/59 80/80/24 81/81/24
f 82/82/22 80/80/24 79/79/59
f 83/83/21 80/80/24 82/82/22
f 80/80/24 83/83/21 84/84/60
f 79/79/59 81/81/24 85/85/61
f 85/85/61 81/81/24 86/86/61
f 85/85/61 86/86/61 87/87/27
f 87/87/27 86/86/61 88/88/29
f 87/87/27 88/88/29 89/89/62
f 89/89/62 88/88/29 90/90/27
f 89/89/62 90/90/27 91/91/31
f 91/91/31 90/90/27 92/92/31
f 91/91/31 93/93/33 94/94/33
f 91/91/31 92/92/31 93/93/33
f 94/94/33 93/93/33 95/95/63
f 94/94/33 95/95/63 96/96/64
f 96/96/64 95/95/63 97/97/65
f 96/96/64 97/97/65 98/98/66
f 98/98/66 97/97/65 99/99/67
f 98/98/66 99/99/67 100/100/67
f 100/100/67 99/99/67 101/101/37
f 100/100/67 101/101/37 102/102/68
f 101/101/37 103/103/21 102/102/68
f 101/101/37 104/104/21 103/103/21
f 105/105/69 106/106/70 107/107/69
f 107/107/69 108/108/71 105/105/69
f 105/105/69 109/109/72 106/106/70
f 105/105/69 110/110/72 109/109/72
f 105/105/69 111/111/72 110/110/72
f 105/105/69 112/112/70 111/111/72
f 105/105/69 113/113/73 112/112/70
f 105/105/69 114/114/71 113/113/73
f 105/105/69 115/115/71 114/114/71
f 105/105/69 116/116/71 115/115/71
f 105/105/69 117/117/71 116/116/71
f 105/105/69 108/108/71 117/117/71
